<?xml version="1.0" encoding="UTF-8" standalone="no"?>
<!DOCTYPE svg PUBLIC "-//W3C//DTD SVG 1.1//EN"
 "http://www.w3.org/Graphics/SVG/1.1/DTD/svg11.dtd">
<!-- Generated by graphviz version 2.46.0 (20210118.1747)
 -->
<!-- Pages: 1 -->
<svg width="881pt" height="231pt"
 viewBox="0.00 0.00 880.60 231.00" xmlns="http://www.w3.org/2000/svg" xmlns:xlink="http://www.w3.org/1999/xlink">
<g id="graph0" class="graph" transform="scale(1 1) rotate(0) translate(4 227)">
<polygon fill="#3f3f3f" stroke="transparent" points="-4,4 -4,-227 876.6,-227 876.6,4 -4,4"/>
<text text-anchor="middle" x="436.3" y="-9.2" font-family="Times New Roman,serif" font-size="16.00" fill="white">Network Map</text>
<!-- R1 -->
<g id="node1" class="node">
<title>R1</title>
<polygon fill="#006699" stroke="#006699" points="95.1,-99 18.1,-99 18.1,-26 95.1,-26 95.1,-99"/>
<text text-anchor="middle" x="56.6" y="-58.8" font-family="Helvetica,sans-Serif" font-size="14.00" fill="white">R1</text>
</g>
<!-- SW1 -->
<g id="node7" class="node">
<title>SW1</title>
<polygon fill="#006699" stroke="#006699" points="287.1,-223 196.1,-223 196.1,-150 287.1,-150 287.1,-223"/>
<text text-anchor="middle" x="241.6" y="-182.8" font-family="Helvetica,sans-Serif" font-size="14.00" fill="white">SW1</text>
</g>
<!-- R1&#45;&#45;SW1 -->
<g id="edge1" class="edge">
<title>R1&#45;&#45;SW1</title>
<path fill="none" stroke="green" stroke-dasharray="5,2" d="M58,-99.18C60.13,-110.87 64.38,-123.13 72.6,-132 104.27,-166.22 157.64,-178.67 195.94,-183.14"/>
<text text-anchor="middle" x="122.6" y="-120.8" font-family="Courier,monospace" font-size="14.00" fill="white"> &#160;&#160;&#160;&#160;&#160;&#160;&#160;&#160;&#160;&#160;&#160;</text>
<text text-anchor="middle" x="166.94" y="-171.94" font-family="Courier,monospace" font-size="14.00" fill="white">Eth 0/1</text>
<text text-anchor="middle" x="29" y="-102.98" font-family="Courier,monospace" font-size="14.00" fill="white">Eth 0/0</text>
</g>
<!-- R3 -->
<g id="node2" class="node">
<title>R3</title>
<polygon fill="#006699" stroke="#006699" points="218.1,-99 141.1,-99 141.1,-26 218.1,-26 218.1,-99"/>
<text text-anchor="middle" x="179.6" y="-58.8" font-family="Helvetica,sans-Serif" font-size="14.00" fill="white">R3</text>
</g>
<!-- R3&#45;&#45;SW1 -->
<g id="edge5" class="edge">
<title>R3&#45;&#45;SW1</title>
<path fill="none" stroke="green" stroke-dasharray="5,2" d="M174.65,-99.23C174.56,-110.17 175.96,-121.96 180.6,-132 184.26,-139.93 189.72,-147.15 195.91,-153.55"/>
<text text-anchor="middle" x="230.6" y="-120.8" font-family="Courier,monospace" font-size="14.00" fill="white"> &#160;&#160;&#160;&#160;&#160;&#160;&#160;&#160;&#160;&#160;&#160;</text>
<text text-anchor="middle" x="166.91" y="-142.35" font-family="Courier,monospace" font-size="14.00" fill="white">Eth 0/3</text>
<text text-anchor="middle" x="145.65" y="-103.03" font-family="Courier,monospace" font-size="14.00" fill="white">Eth 0/0</text>
</g>
<!-- R2 -->
<g id="node3" class="node">
<title>R2</title>
<polygon fill="#006699" stroke="#006699" points="710.1,-99 633.1,-99 633.1,-26 710.1,-26 710.1,-99"/>
<text text-anchor="middle" x="671.6" y="-58.8" font-family="Helvetica,sans-Serif" font-size="14.00" fill="white">R2</text>
</g>
<!-- R6 -->
<g id="node5" class="node">
<title>R6</title>
<polygon fill="#006699" stroke="#006699" points="833.1,-223 756.1,-223 756.1,-150 833.1,-150 833.1,-223"/>
<text text-anchor="middle" x="794.6" y="-182.8" font-family="Helvetica,sans-Serif" font-size="14.00" fill="white">R6</text>
</g>
<!-- R2&#45;&#45;R6 -->
<g id="edge4" class="edge">
<title>R2&#45;&#45;R6</title>
<path fill="none" stroke="green" stroke-dasharray="5,2" d="M710.18,-79.66C727.92,-88.6 748.17,-101.14 762.6,-117 771.16,-126.42 777.83,-138.53 782.81,-149.95"/>
<text text-anchor="middle" x="822.6" y="-120.8" font-family="Courier,monospace" font-size="14.00" fill="white"> &#160;&#160;&#160;&#160;&#160;&#160;&#160;&#160;&#160;&#160;&#160;</text>
<text text-anchor="middle" x="753.81" y="-138.75" font-family="Courier,monospace" font-size="14.00" fill="white">Eth 0/1</text>
<text text-anchor="middle" x="739.18" y="-68.46" font-family="Courier,monospace" font-size="14.00" fill="white">Eth 0/2</text>
</g>
<!-- R5 -->
<g id="node6" class="node">
<title>R5</title>
<polygon fill="#006699" stroke="#006699" points="587.1,-223 510.1,-223 510.1,-150 587.1,-150 587.1,-223"/>
<text text-anchor="middle" x="548.6" y="-182.8" font-family="Helvetica,sans-Serif" font-size="14.00" fill="white">R5</text>
</g>
<!-- R2&#45;&#45;R5 -->
<g id="edge3" class="edge">
<title>R2&#45;&#45;R5</title>
<path fill="none" stroke="green" stroke-dasharray="5,2" d="M665.68,-99.2C662.42,-110.63 657.37,-122.71 649.6,-132 633.41,-151.32 608.43,-164.64 587.36,-173.15"/>
<text text-anchor="middle" x="708.6" y="-120.8" font-family="Courier,monospace" font-size="14.00" fill="white"> &#160;&#160;&#160;&#160;&#160;&#160;&#160;&#160;&#160;&#160;&#160;</text>
<text text-anchor="middle" x="616.36" y="-161.95" font-family="Courier,monospace" font-size="14.00" fill="white">Eth 0/0</text>
<text text-anchor="middle" x="636.68" y="-103" font-family="Courier,monospace" font-size="14.00" fill="white">Eth 0/1</text>
</g>
<!-- R2&#45;&#45;SW1 -->
<g id="edge2" class="edge">
<title>R2&#45;&#45;SW1</title>
<path fill="none" stroke="green" stroke-dasharray="5,2" d="M632.82,-76.88C607.22,-86.45 573.4,-100.52 545.6,-117 536.34,-122.48 536.39,-127.55 526.6,-132 447.43,-168.01 345.33,-179.78 287.3,-183.63"/>
<text text-anchor="middle" x="595.6" y="-120.8" font-family="Courier,monospace" font-size="14.00" fill="white"> &#160;&#160;&#160;&#160;&#160;&#160;&#160;&#160;&#160;&#160;&#160;</text>
<text text-anchor="middle" x="316.3" y="-172.43" font-family="Courier,monospace" font-size="14.00" fill="white">Eth 0/2</text>
<text text-anchor="middle" x="603.82" y="-65.68" font-family="Courier,monospace" font-size="14.00" fill="white">Eth 0/0</text>
</g>
<!-- R4 -->
<g id="node4" class="node">
<title>R4</title>
<polygon fill="#006699" stroke="#006699" points="403.1,-99 326.1,-99 326.1,-26 403.1,-26 403.1,-99"/>
<text text-anchor="middle" x="364.6" y="-58.8" font-family="Helvetica,sans-Serif" font-size="14.00" fill="white">R4</text>
</g>
<!-- R4&#45;&#45;R5 -->
<g id="edge7" class="edge">
<title>R4&#45;&#45;R5</title>
<path fill="none" stroke="green" stroke-dasharray="5,2" d="M391.72,-99.07C401.76,-110.62 413.84,-122.81 426.6,-132 452.02,-150.32 484.71,-164.23 509.85,-173.27"/>
<text text-anchor="middle" x="476.6" y="-120.8" font-family="Courier,monospace" font-size="14.00" fill="white"> &#160;&#160;&#160;&#160;&#160;&#160;&#160;&#160;&#160;&#160;&#160;</text>
<text text-anchor="middle" x="480.85" y="-162.07" font-family="Courier,monospace" font-size="14.00" fill="white">Eth 0/1</text>
<text text-anchor="middle" x="362.72" y="-102.87" font-family="Courier,monospace" font-size="14.00" fill="white">Eth 0/1</text>
</g>
<!-- R4&#45;&#45;SW1 -->
<g id="edge6" class="edge">
<title>R4&#45;&#45;SW1</title>
<path fill="none" stroke="green" stroke-dasharray="5,2" d="M325.91,-96.23C318.37,-102.95 310.62,-110.08 303.6,-117 293.08,-127.35 282.11,-139.11 272.38,-149.93"/>
<text text-anchor="middle" x="353.6" y="-120.8" font-family="Courier,monospace" font-size="14.00" fill="white"> &#160;&#160;&#160;&#160;&#160;&#160;&#160;&#160;&#160;&#160;&#160;</text>
<text text-anchor="middle" x="243.38" y="-138.73" font-family="Courier,monospace" font-size="14.00" fill="white">Eth 0/4</text>
<text text-anchor="middle" x="296.91" y="-85.03" font-family="Courier,monospace" font-size="14.00" fill="white">Eth 0/0</text>
</g>
</g>
</svg>
